# xmcd
#
# Track frame offsets:
#	150
#	24792
#	39239
#	57394
#	78032
#	97737
#	128619
#	149541
#	170992
#	192884
#	204016
#	223129
#	244443
#	269988
#	310088
#	326135
#	341256
#
# Disc length: 4697 seconds
#
# Revision: 0
# Processed by: cddbd v1.5.1PL2 Copyright (c) Steve Scherf et al.
# Submitted via: EasyCDDAExtractor 9.0.0.1
#
DISCID=f2125711
DTITLE=Stevie Ray Vaughan - The essential - CD2
DYEAR=1900
DGENRE=
TTITLE0=Say what!
TTITLE1=Look at little sister
TTITLE2=Change it
TTITLE3=Come on (part III)
TTITLE4=Life without you
TTITLE5=Little wing
TTITLE6=Willie the wimp (live)
TTITLE7=Superstition (live)
TTITLE8=Leave my girl alone (live)
TTITLE9=The house is rockin'
TTITLE10=Crossfire
TTITLE11=Tightrope
TTITLE12=Wall of denial
TTITLE13=Riviera paradise
TTITLE14=Telephone song (The Vaughan Brothers)
TTITLE15=Long way from home (The Vaughan Brothers)
TTITLE16=Life by the drop
EXTD=
EXTT0=
EXTT1=
EXTT2=
EXTT3=
EXTT4=
EXTT5=
EXTT6=
EXTT7=
EXTT8=
EXTT9=
EXTT10=
EXTT11=
EXTT12=
EXTT13=
EXTT14=
EXTT15=
EXTT16=
PLAYORDER=
